<?xml version="1.0" encoding="UTF-8" standalone="no"?>
<!-- Created with Inkscape (http://www.inkscape.org/) by Marsupilami -->
<svg
   xmlns:svg="http://www.w3.org/2000/svg"
   xmlns="http://www.w3.org/2000/svg"
   version="1.0"
   width="1024"
   height="378"
   viewBox="0 0 103.9175 38.341251"
   id="svg2721">
  <defs
     id="defs2723" />
  <g
     transform="translate(-323.04125,-513.19155)"
     id="layer1">
    <path
       d="M 100.75,0 C 99.037501,0 97.625,1.39625 97.625,3.125 C 97.624996,4.86875 99.0375,6.28125 100.75,6.28125 C 102.48,6.2812498 103.90625,4.86875 103.90625,3.125 C 103.90625,1.39625 102.48,0 100.75,0 z M 100.75,0.46875 C 102.22,0.46874999 103.4375,1.65625 103.4375,3.125 C 103.4375,4.59375 102.22,5.8125 100.75,5.8125 C 99.281251,5.8125002 98.09375,4.59375 98.09375,3.125 C 98.093748,1.65625 99.28125,0.46875 100.75,0.46875 z M 35.25,0.6875 C 31.363748,0.68749997 28.52375,3.26875 28.125,7.8125 L 25.125,7.8125 L 25.125,10.0625 L 28.09375,10.0625 L 28.09375,31.6875 L 31.46875,31.6875 L 31.46875,10.0625 L 39,10.0625 C 36.200001,12.32625 34.40625,16.025 34.40625,20.15625 C 34.406251,27.01 39.34875,32.54875 45.46875,32.625 C 45.498751,32.640002 45.5475,32.65625 45.59375,32.65625 C 51.774999,32.656248 56.75,27.05625 56.75,20.15625 C 56.749999,19.345 56.66875,18.53125 56.53125,17.75 C 57.647501,19.524999 59.78,20.41625 62.625,21.65625 C 66.006249,23.07875 67.875,24.31 67.875,26.4375 C 67.874997,28.992501 65.48875,30.29625 62.78125,30.28125 C 60.133751,30.281249 58.045,29.20625 55.75,27.125 L 55.75,31.125 C 57.1575,32.02875 59.33125,32.5625 61.6875,32.5625 C 63.492501,32.54625 66.48125,32.135 68.53125,30.40625 C 69.831252,29.32 70.75,27.6825 70.75,25.28125 C 70.733752,23.3075 69.8625,21.94625 68.53125,20.875 C 67.368752,19.9425 65.8725,19.22 64.3125,18.5625 C 60.242498,16.5425 58.70375,16.1225 58.75,13.8125 C 58.749998,10.73625 61.40375,9.8125 63.5,9.8125 C 64.402501,9.8124998 65.17125,9.95875 65.90625,10.21875 C 67.282502,10.72375 67.72875,11.7275 68.21875,12.84375 C 68.371246,13.18125 68.47,13.39375 68.53125,13.53125 C 68.561252,13.5775 68.57875,13.62625 68.59375,13.65625 C 68.616254,13.71625 68.60625,13.72 68.59375,13.6875 L 74.9375,28.9375 C 73.866248,31.37 72.67,33.94 71.84375,35.5625 L 71.8125,35.59375 C 71.690002,35.838749 71.57625,36.06625 71.46875,36.25 C 71.331252,36.51 71.2175,36.7225 71.125,36.875 L 70.34375,38.34375 L 73.625,38.34375 C 75.063752,35.161249 81.18375,20.27625 82.5,17.09375 C 83.356252,19.38875 85.45875,20.3275 88.6875,21.71875 C 92.053752,23.142501 93.96875,24.37375 93.96875,26.5 C 93.968753,29.040001 91.5525,30.375 88.84375,30.34375 C 86.104997,30.34375 83.98,29.2025 81.5625,26.96875 L 81.34375,26.78125 L 81.34375,30.84375 C 82.690001,31.975001 85.1025,32.625 87.75,32.625 C 90.702497,32.625001 96.8125,31.55625 96.8125,25.375 C 96.797502,21.6725 93.71,20.0475 90.375,18.625 C 86.304998,16.60625 84.9225,16.20125 84.96875,13.90625 C 84.96875,10.83125 87.48125,9.90625 89.5625,9.90625 C 91.948753,9.9062497 93.435,10.7825 95.53125,12.3125 L 95.53125,8.71875 C 93.833748,8.1212504 92.3975,7.90625 90.46875,7.90625 C 86.613751,7.90625 83.1375,9.30375 82.25,12.5625 L 77.46875,24.375 L 76.96875,25.875 L 76.53125,24.375 L 70.09375,8.6875 C 69.649997,8.5649998 69.1125,8.40375 68.53125,8.28125 C 67.337502,8.0212505 65.9625,7.82875 64.90625,7.84375 C 64.753747,7.8287502 64.60625,7.8125 64.4375,7.8125 C 59.971252,7.8125001 55.65625,9.6875 55.65625,14.125 C 55.656249,14.385 55.67125,14.64625 55.6875,14.875 C 53.897499,10.62125 50.07625,7.6875 45.59375,7.6875 L 45.46875,7.6875 C 44.963751,7.7037502 44.47375,7.73625 44,7.8125 L 31.40625,7.8125 C 30.901251,4.6462502 32.36,2.8125 34.59375,2.8125 C 37.393751,2.8124999 38.60375,3.66375 39.8125,4.78125 L 39.9375,4.78125 C 39.9375,4.7812502 39.95375,4.63625 39.96875,4.40625 L 39.96875,1.34375 C 39.157501,0.97625005 37.78875,0.6875 35.25,0.6875 z M 0,0.78125 L 0,31.6875 L 3.71875,31.6875 L 3.71875,0.78125 L 0,0.78125 z M 99.59375,1.40625 L 99.59375,4.71875 L 100.1875,4.71875 L 100.1875,3.375 L 100.875,3.375 L 101.40625,4.71875 L 102.09375,4.71875 L 101.46875,3.28125 C 101.6825,3.17375 102.03125,3.065 102.03125,2.46875 C 102.03125,1.5500001 101.3625,1.40625 100.75,1.40625 L 99.59375,1.40625 z M 100.1875,1.96875 L 100.84375,1.96875 C 101.195,1.96875 101.40625,2.115 101.40625,2.40625 C 101.40625,2.69625 101.18125,2.84375 100.90625,2.84375 L 100.1875,2.84375 L 100.1875,1.96875 z M 18.0625,7.71875 C 13.9775,7.7187498 12.2675,9.1875 10.90625,10.65625 C 10.845,10.7175 10.79625,10.815 10.75,10.9375 L 10.6875,10.9375 L 10.65625,8.03125 L 7.375,8.03125 L 7.375,11.15625 L 7.375,31.6875 L 10.75,31.6875 L 10.75,14.40625 C 10.84125,12.295 13.86125,10.1875 16.1875,10.1875 C 18.987499,10.1875 21.28125,12.08625 21.28125,14.6875 L 21.28125,31.6875 L 24.625,31.6875 L 24.625,13.15625 C 24.53375,11.06 21.98,7.71875 18.0625,7.71875 z M 45.28125,10.15625 L 45.46875,10.15625 C 49.600001,10.2025 52.97125,14.63375 53.0625,20.15625 C 53.154999,25.771249 49.8475,30.3925 45.625,30.46875 L 45.46875,30.46875 C 41.322501,30.4225 37.92,25.97625 37.8125,20.4375 C 37.719998,14.837501 41.07375,10.2325 45.28125,10.15625 z"
       transform="translate(323.04125,513.19155)"
       id="path2430"
       style="fill:#2a7cc9;fill-opacity:1;fill-rule:evenodd;stroke:none" />
  </g>
</svg>
